<svg version="1.0" id="Layer_1" xmlns="http://www.w3.org/2000/svg" xmlns:xlink="http://www.w3.org/1999/xlink" width="70" height="70" viewBox="0 0 64 64" xml:space="preserve"><style>.st0{fill-rule:evenodd;clip-rule:evenodd}.st1{fill:#161616}.st2{fill-rule:evenodd;clip-rule:evenodd;fill:#624499}.st3,.st4{fill:none;stroke:#161616;stroke-width:.5549;stroke-miterlimit:10}.st4{stroke:#000}</style><path id="Shape_13_" class="st0" d="M8.4-70.1h34c2.2 0 4-1.8 4-4v-2h3c.6 0 1-.4 1-1v-16c0-.6-.4-1-1-1h-3v-18c0-.3-.1-.5-.3-.7l-11-11c-.2-.2-.4-.3-.7-.3h-26c-2.2 0-4 1.8-4 4v46c0 2.2 1.8 4 4 4zm40-8h-36v-14h36v14zm-4.4-34h-7.6c-1.1 0-2-.9-2-2v-7.6l9.6 9.6zm-37.6-8c0-1.1.9-2 2-2h24v8c0 2.2 1.8 4 4 4h8v16h-33c-.6 0-1 .4-1 1v16c0 .6.4 1 1 1h33v2c0 1.1-.9 2-2 2h-34c-1.1 0-2-.9-2-2v-46z"/><path id="Shape_9_" class="st0" d="M12.7-106.4c.2.2.5.3.7.3s.5-.1.7-.3c.4-.4.4-1 0-1.4l-3.3-3.3 3.3-3.3c.4-.4.4-1 0-1.4-.4-.4-1-.4-1.4 0l-4 4c-.4.4-.4 1 0 1.4l4 4z"/><path id="Shape_8_" class="st0" d="M24.7-106.4c.2.2.5.3.7.3s.5-.1.7-.3l4-4c.4-.4.4-1 0-1.4l-4-4c-.4-.4-1-.4-1.4 0-.4.4-.4 1 0 1.4l3.3 3.3-3.3 3.3c-.4.4-.4 1 0 1.4z"/><path id="Shape_7_" class="st0" d="M17.1-104.2c.1 0 .2.1.3.1.4 0 .8-.3.9-.7l4-12c.2-.5-.1-1.1-.6-1.3-.5-.2-1.1.1-1.3.6l-4 12c-.1.6.2 1.2.7 1.3z"/><path d="M18.5-88.5c0-.5.4-.9.9-.9h2.4c2.6 0 4.5 1.8 4.5 4.2 0 2.4-1.8 4.2-4.5 4.2h-2.4c-.5 0-.9-.4-.9-.9v-6.6zm3.3 5.8c1.5 0 2.5-1 2.5-2.5s-1-2.5-2.5-2.5h-1.4v5.1l1.4-.1zm5.2.5l2.9-6.6c.2-.5.6-.7 1.1-.7h.1c.5 0 .9.3 1.1.7l2.9 6.6c.1.1.1.3.1.4 0 .5-.4.9-.9.9-.4 0-.7-.3-.9-.6l-.6-1.3h-3.7l-.6 1.4c-.2.4-.5.6-.9.6-.5 0-.9-.4-.9-.9.2-.3.3-.4.3-.5zm5.2-2.4L31-87.4l-1.2 2.8h2.4zm5.6-3.1H36c-.5 0-.9-.4-.9-.9s.4-.9.9-.9h5.4c.5 0 .9.4.9.9s-.4.9-.9.9h-1.8v5.8c0 .5-.4.9-.9.9s-.9-.4-.9-.9v-5.8z"/><path id="Shape_19_" class="st0" d="M78.2-69.8h34c2.2 0 4-1.8 4-4v-2h3c.6 0 1-.4 1-1v-16c0-.6-.4-1-1-1h-3v-18c0-.3-.1-.5-.3-.7l-11-11c-.2-.2-.4-.3-.7-.3h-26c-2.2 0-4 1.8-4 4v46c0 2.2 1.8 4 4 4zm40-8h-36v-14h36v14zm-4.4-34h-7.6c-1.1 0-2-.9-2-2v-7.6l9.6 9.6zm-37.6-8c0-1.1.9-2 2-2h24v8c0 2.2 1.8 4 4 4h8v16h-33c-.6 0-1 .4-1 1v16c0 .6.4 1 1 1h33v2c0 1.1-.9 2-2 2h-34c-1.1 0-2-.9-2-2v-46z"/><path id="Shape_18_" class="st0" d="M82.5-106.1c.2.2.5.3.7.3.3 0 .5-.1.7-.3.4-.4.4-1 0-1.4l-3.3-3.3 3.3-3.3c.4-.4.4-1 0-1.4-.4-.4-1-.4-1.4 0l-4 4c-.4.4-.4 1 0 1.4l4 4z"/><path id="Shape_17_" class="st0" d="M94.5-106.1c.2.2.5.3.7.3.3 0 .5-.1.7-.3l4-4c.4-.4.4-1 0-1.4l-4-4c-.4-.4-1-.4-1.4 0s-.4 1 0 1.4l3.3 3.3-3.3 3.3c-.4.4-.4 1 0 1.4z"/><path id="Shape_16_" class="st0" d="M86.9-103.9c.1 0 .2.1.3.1.4 0 .8-.3.9-.7l4-12c.2-.5-.1-1.1-.6-1.3-.5-.2-1.1.1-1.3.6l-4 12c-.2.6.1 1.2.7 1.3z"/><path d="M88.6-81.9v-6.5c0-.5.4-.9.9-.9h4.7c.5 0 .8.4.8.8 0 .5-.4.8-.8.8h-3.7v1.7h3.2c.5 0 .8.4.8.8 0 .5-.4.8-.8.8h-3.2v1.8h3.8c.5 0 .8.4.8.8 0 .5-.4.8-.8.8h-4.7c-.6.1-1-.4-1-.9zm7.9-.5l2.3-2.8-2.1-2.6c-.1-.2-.3-.4-.3-.7 0-.5.4-.9.9-.9.4 0 .6.2.9.5l1.8 2.4 1.8-2.4c.3-.3.5-.5.9-.5s.8.3.8.9c0 .3-.1.5-.3.7l-2.1 2.6 2.3 2.8c.1.2.3.4.3.7 0 .5-.4.9-.9.9-.4 0-.6-.2-.9-.5l-2-2.6-1.9 2.5c-.3.3-.5.5-.9.5s-.8-.3-.8-.9c-.1-.2 0-.4.2-.6zm8.7.5v-6.5c0-.5.4-.9.9-.9h4.7c.5 0 .8.4.8.8 0 .5-.4.8-.8.8h-3.7v1.7h3.2c.5 0 .8.4.8.8 0 .5-.4.8-.8.8h-3.2v1.8h3.8c.5 0 .8.4.8.8 0 .5-.4.8-.8.8h-4.7c-.6.1-1-.4-1-.9z"/><path id="Shape" class="st0" d="M288.1-69.4h34c2.2 0 4-1.8 4-4v-2h3c.6 0 1-.4 1-1v-16c0-.6-.4-1-1-1h-3v-18c0-.3-.1-.5-.3-.7l-11-11c-.2-.2-.4-.3-.7-.3h-26c-2.2 0-4 1.8-4 4v46c0 2.2 1.8 4 4 4zm40-8h-36v-14h36v14zm-4.4-34h-7.6c-1.1 0-2-.9-2-2v-7.6l9.6 9.6zm-37.6-8c0-1.1.9-2 2-2h24v8c0 2.2 1.8 4 4 4h8v16h-33c-.6 0-1 .4-1 1v16c0 .6.4 1 1 1h33v2c0 1.1-.9 2-2 2h-34c-1.1 0-2-.9-2-2v-46z"/><path id="Shape_4_" class="st0" d="M292.4-105.7c.2.2.5.3.7.3s.5-.1.7-.3c.4-.4.4-1 0-1.4l-3.3-3.3 3.3-3.3c.4-.4.4-1 0-1.4s-1-.4-1.4 0l-4 4c-.4.4-.4 1 0 1.4l4 4z"/><path id="Shape_5_" class="st0" d="M304.4-105.7c.2.2.5.3.7.3s.5-.1.7-.3l4-4c.4-.4.4-1 0-1.4l-4-4c-.4-.4-1-.4-1.4 0s-.4 1 0 1.4l3.3 3.3-3.3 3.3c-.4.4-.4 1 0 1.4z"/><path id="Shape_6_" class="st0" d="M296.8-103.5c.1 0 .2.1.3.1.4 0 .8-.3.9-.7l4-12c.2-.5-.1-1.1-.6-1.3-.5-.2-1.1.1-1.3.6l-4 12c-.1.6.1 1.2.7 1.3z"/><path d="M298.8-80.8c-.2-.1-.3-.4-.3-.7 0-.5.4-.9.9-.9.2 0 .4.1.6.2.4.3.7.4 1.1.4.7 0 1.2-.4 1.2-1.4v-4.6c0-.5.4-.9.9-.9s.9.4.9.9v4.7c0 1-.3 1.7-.8 2.2s-1.3.8-2.2.8c-1 0-1.7-.3-2.3-.7zm7-3v-3.9c0-.5.4-.9.9-.9s.9.4.9.9v3.9c0 1.4.7 2.1 1.8 2.1s1.8-.7 1.8-2v-4c0-.5.4-.9.9-.9s.9.4.9.9v3.9c0 2.5-1.4 3.8-3.7 3.8s-3.5-1.3-3.5-3.8zm9.2-3.9c0-.5.4-.9.9-.9h2.5c2 0 3.2 1.2 3.2 2.9 0 1.9-1.5 3-3.4 3h-1.4v1.6c0 .5-.4.9-.9.9s-.9-.4-.9-.9v-6.6zm3.3 3.3c.9 0 1.5-.6 1.5-1.3 0-.8-.6-1.3-1.5-1.3h-1.4v2.6h1.4z"/><path id="Shape_15_" class="st0" d="M216.8-69.3h34c2.2 0 4-1.8 4-4v-2h3c.6 0 1-.4 1-1v-16c0-.6-.4-1-1-1h-3v-18c0-.3-.1-.5-.3-.7l-11-11c-.2-.2-.4-.3-.7-.3h-26c-2.2 0-4 1.8-4 4v46c0 2.2 1.8 4 4 4zm40-8h-36v-14h36v14zm-4.4-34h-7.6c-1.1 0-2-.9-2-2v-7.5l9.6 9.5zm-37.6-8c0-1.1.9-2 2-2h24v8c0 2.2 1.8 4 4 4h8v16h-33c-.6 0-1 .4-1 1v16c0 .6.4 1 1 1h33v2c0 1.1-.9 2-2 2h-34c-1.1 0-2-.9-2-2v-46z"/><path id="Shape_14_" class="st0" d="M221.1-105.6c.2.2.5.3.7.3s.5-.1.7-.3c.4-.4.4-1 0-1.4l-3.3-3.3 3.3-3.3c.4-.4.4-1 0-1.4-.4-.4-1-.4-1.4 0l-4 4c-.4.4-.4 1 0 1.4l4 4z"/><path id="Shape_12_" class="st0" d="M233.1-105.6c.2.2.5.3.7.3s.5-.1.7-.3l4-4c.4-.4.4-1 0-1.4l-4-4c-.4-.4-1-.4-1.4 0s-.4 1 0 1.4l3.3 3.3-3.3 3.3c-.4.4-.4 1.1 0 1.4z"/><path id="Shape_11_" class="st0" d="M225.5-103.3c.1 0 .2.1.3.1.4 0 .8-.3.9-.7l4-12c.2-.5-.1-1.1-.6-1.3-.5-.2-1.1.1-1.3.6l-4 12c-.2.5.1 1.1.7 1.3z"/><path d="M225.2-87.6c0-.5.4-.9.9-.9h2.4c2.6 0 4.5 1.8 4.5 4.2 0 2.4-1.8 4.2-4.5 4.2h-2.4c-.5 0-.9-.4-.9-.9v-6.6zm3.3 5.8c1.5 0 2.5-1 2.5-2.5s-1-2.5-2.5-2.5h-1.4v5.1l1.4-.1zm5.7-2.5c0-2.4 1.9-4.4 4.5-4.4s4.4 1.9 4.4 4.3-1.9 4.3-4.5 4.3-4.4-1.8-4.4-4.2zm7 0c0-1.5-1.1-2.7-2.5-2.7s-2.5 1.2-2.5 2.6c0 1.4 1.1 2.6 2.5 2.6s2.5-1.1 2.5-2.5zm3.2 0c0-2.4 1.8-4.4 4.4-4.4 1.3 0 2.1.3 2.8.9.2.1.4.4.4.7 0 .5-.4.9-.9.9-.3 0-.4-.1-.6-.2-.5-.4-1.1-.6-1.7-.6-1.4 0-2.4 1.2-2.4 2.6 0 1.4 1 2.6 2.4 2.6.8 0 1.3-.2 1.8-.7.1-.1.3-.2.6-.2.5 0 .9.4.9.9 0 .3-.1.5-.3.7-.8.7-1.6 1.1-3 1.1-2.5 0-4.4-1.9-4.4-4.3z"/><path id="Shape_10_" class="st0" d="M147.7-69.4h34c2.2 0 4-1.8 4-4v-2h3c.6 0 1-.4 1-1v-16c0-.6-.4-1-1-1h-3v-18c0-.3-.1-.5-.3-.7l-11-11c-.2-.2-.4-.3-.7-.3h-26c-2.2 0-4 1.8-4 4v46c0 2.2 1.8 4 4 4zm40-8h-36v-14h36v14zm-4.4-34h-7.6c-1.1 0-2-.9-2-2v-7.6l9.6 9.6zm-37.6-8c0-1.1.9-2 2-2h24v8c0 2.2 1.8 4 4 4h8v16h-33c-.6 0-1 .4-1 1v16c0 .6.4 1 1 1h33v2c0 1.1-.9 2-2 2h-34c-1.1 0-2-.9-2-2v-46z"/><path id="Shape_3_" class="st0" d="M152-105.7c.2.2.5.3.7.3s.5-.1.7-.3c.4-.4.4-1 0-1.4l-3.3-3.3 3.3-3.3c.4-.4.4-1 0-1.4s-1-.4-1.4 0l-4 4c-.4.4-.4 1 0 1.4l4 4z"/><path id="Shape_2_" class="st0" d="M164-105.7c.2.2.5.3.7.3s.5-.1.7-.3l4-4c.4-.4.4-1 0-1.4l-4-4c-.4-.4-1-.4-1.4 0s-.4 1 0 1.4l3.3 3.3-3.3 3.3c-.3.3-.3 1 0 1.4z"/><path id="Shape_1_" class="st0" d="M156.4-103.5c.1 0 .2.1.3.1.4 0 .8-.3.9-.7l4-12c.2-.5-.1-1.1-.6-1.3-.5-.2-1.1.1-1.3.6l-4 12c-.1.6.2 1.1.7 1.3z"/><path d="M164.1-81.6l2.9-6.6c.2-.5.6-.7 1.1-.7h.1c.5 0 .9.3 1.1.7l2.9 6.6c.1.1.1.3.1.4 0 .5-.4.9-.9.9-.4 0-.7-.3-.9-.6l-.6-1.3h-3.7l-.6 1.4c-.2.4-.5.6-.9.6-.5 0-.9-.4-.9-.9.2-.2.2-.4.3-.5zm5.2-2.3l-1.2-2.8-1.2 2.8h2.4zm4.5-4.1c0-.5.4-.9.9-.9s.9.4.9.9v6.7c0 .5-.4.9-.9.9s-.9-.4-.9-.9V-88z"/><ellipse class="st1" cx="-100.8" cy="-.2" rx="7.4" ry="2.5"/><path class="st1" d="M-93.4 8.8v2.7c0 1.4-3.3 2.5-7.4 2.5-4.1 0-7.4-1.1-7.4-2.5V8.8c0 1.4 3.3 2.5 7.4 2.5 4.1 0 7.4-1.1 7.4-2.5z"/><path class="st1" d="M-93.4 4.9v2.7c0 1.4-3.3 2.5-7.4 2.5-4.1 0-7.4-1.1-7.4-2.5V4.9c0 1.4 3.3 2.5 7.4 2.5 4.1 0 7.4-1.1 7.4-2.5z"/><path class="st1" d="M-93.4 1.1v2.7c0 1.4-3.3 2.5-7.4 2.5-4.1 0-7.4-1.1-7.4-2.5V1.1c0 1.4 3.3 2.5 7.4 2.5 4.1.1 7.4-1.1 7.4-2.5z"/><path id="Shape_24_" class="st2" d="M-110.4 41.7h35.5c2.3 0 4.2-1.9 4.2-4.2v-2.1h3.1c.6 0 1-.4 1-1V17.7c0-.6-.4-1-1-1h-3.1V-2.1c0-.3-.1-.5-.3-.7l-11.5-11.5c-.2-.2-.4-.3-.7-.3h-27.2c-2.3 0-4.2 1.9-4.2 4.2v48c.1 2.2 1.9 4.1 4.2 4.1zm41.8-8.3h-37.6V18.8h37.6v14.6zm-4.6-35.5h-7.9c-1.1 0-2.1-.9-2.1-2.1v-7.9l10 10zm-39.2-8.4c0-1.1.9-2.1 2.1-2.1h25.1v8.4c0 2.3 1.9 4.2 4.2 4.2h8.4v16.7h-34.5c-.6 0-1 .4-1 1v16.7c0 .6.4 1 1 1h34.5v2.1c0 1.1-.9 2.1-2.1 2.1h-35.5c-1.1 0-2.1-.9-2.1-2.1v-48h-.1z"/><path class="st1" d="M-99.8 22.5c0-.5.4-.9.9-.9h2.5c2.7 0 4.7 1.9 4.7 4.4 0 2.5-1.9 4.4-4.7 4.4h-2.5c-.5 0-.9-.4-.9-.9v-7zm3.4 6.1c1.6 0 2.6-1 2.6-2.6s-1-2.6-2.6-2.6h-1.5v5.3h1.5v-.1zm5.6.5l3-6.9c.2-.5.6-.7 1.1-.7h.1c.5 0 .9.3 1.1.7l3 6.9c.1.1.1.3.1.4 0 .5-.4.9-.9.9-.4 0-.7-.3-.9-.6l-.6-1.4h-3.9l-.6 1.5c-.2.4-.5.6-.9.6-.5 0-.9-.4-.9-.9.2-.2.2-.4.3-.5zm5.4-2.4l-1.3-2.9-1.3 2.9h2.6zm5.8-3.4h-1.9c-.5 0-.9-.4-.9-.9s.4-.9.9-.9h5.6c.5 0 .9.4.9.9s-.4.9-.9.9h-1.9v6.1c0 .5-.4.9-.9.9s-.9-.4-.9-.9v-6.1zm93.9-5.2c0-1.8 1.1-3.1 2.7-3.1s2.7 1.4 2.7 3.1c0 1.7-1.1 3.1-2.7 3.1s-2.7-1.4-2.7-3.1zm4 0c0-1.1-.5-1.9-1.3-1.9s-1.3.8-1.3 1.9c0 1.1.5 1.9 1.3 1.9s1.3-.8 1.3-1.9zm3.3-1.8l-.5.1h-.2c-.3 0-.6-.3-.6-.6s.2-.5.4-.6l.9-.2c.2-.1.4-.1.6-.1.4 0 .7.3.7.7v4.9c0 .4-.3.7-.7.7s-.7-.3-.7-.7v-4.2zm2.6 1.8c0-1.8 1.1-3.1 2.7-3.1s2.7 1.4 2.7 3.1c0 1.7-1.1 3.1-2.7 3.1-1.7 0-2.7-1.4-2.7-3.1zm4 0c0-1.1-.5-1.9-1.3-1.9s-1.3.8-1.3 1.9c0 1.1.5 1.9 1.3 1.9s1.3-.8 1.3-1.9zm3.3-1.8l-.5.1h-.2c-.3 0-.6-.3-.6-.6s.2-.5.4-.6l.9-.2c.2-.1.4-.1.6-.1.4 0 .7.3.7.7v4.9c0 .4-.3.7-.7.7-.4 0-.7-.3-.7-.7v-4.2zM14.3 28.4c0-1.8 1.1-3.1 2.7-3.1s2.7 1.4 2.7 3.1c0 1.7-1.1 3.1-2.7 3.1s-2.7-1.3-2.7-3.1zm4 0c0-1.1-.5-1.9-1.3-1.9s-1.3.8-1.3 1.9c0 1.1.5 1.9 1.3 1.9s1.3-.8 1.3-1.9zm3.3-1.7l-.5.1h-.2c-.3 0-.6-.3-.6-.6s.2-.5.4-.6l.9-.2c.2-.1.4-.1.6-.1.4 0 .7.3.7.7v4.9c0 .4-.3.7-.7.7s-.7-.3-.7-.7v-4.2zm2.6 1.7c0-1.8 1.1-3.1 2.7-3.1s2.7 1.4 2.7 3.1c0 1.7-1.1 3.1-2.7 3.1-1.7 0-2.7-1.3-2.7-3.1zm4 0c0-1.1-.5-1.9-1.3-1.9s-1.3.8-1.3 1.9c0 1.1.5 1.9 1.3 1.9s1.3-.8 1.3-1.9zm3.3-1.7l-.5.1h-.2c-.3 0-.6-.3-.6-.6s.2-.5.4-.6l.9-.2c.2-.1.4-.1.6-.1.4 0 .7.3.7.7v4.9c0 .4-.3.7-.7.7-.4 0-.7-.3-.7-.7v-4.2z"/><path id="Shape_23_" class="st2" d="M11.8 59.8h35.5c2.3 0 4.2-1.9 4.2-4.2v-2.1h3.1c.6 0 1-.4 1-1V35.8c0-.6-.4-1-1-1h-3.1V15.9c0-.3-.1-.5-.3-.7L39.7 3.7c-.2-.2-.4-.3-.7-.3H11.8c-2.3 0-4.2 1.9-4.2 4.2v48c0 2.3 1.9 4.2 4.2 4.2zm41.8-8.4H16V36.8h37.6v14.6zM49 15.9h-7.9c-1.1 0-2.1-.9-2.1-2.1V5.9l10 10zM9.7 7.6c0-1.1.9-2.1 2.1-2.1h25.1v8.4c0 2.3 1.9 4.2 4.2 4.2h8.4v16.7H14.9c-.6 0-1 .4-1 1v16.7c0 .6.4 1 1 1h34.5v2.1c0 1.1-.9 2.1-2.1 2.1H11.8c-1.1 0-2.1-.9-2.1-2.1v-48z"/><path class="st1" d="M22.8 47.1v-6.8c0-.5.4-.9.9-.9h4.8c.5 0 .8.4.8.8 0 .5-.4.8-.8.8h-3.9v1.8H28c.5 0 .8.4.8.8 0 .5-.4.8-.8.8h-3.3v1.9h4c.5 0 .8.4.8.8 0 .5-.4.8-.8.8h-4.9c-.6.3-1-.1-1-.8zm8.1-.5l2.4-2.9L31 41c-.1-.2-.3-.4-.3-.7 0-.5.4-.9.9-.9.4 0 .6.2.9.5l1.9 2.5 1.9-2.5c.3-.3.5-.5.9-.5s.8.3.8.9c0 .3-.1.5-.3.7l-2.2 2.7 2.4 2.9c.1.2.3.4.3.7 0 .5-.4.9-.9.9-.4 0-.6-.2-.9-.5L34.3 45l-2 2.6c-.3.3-.5.5-.9.5s-.8-.3-.8-.8c0-.3.1-.5.3-.7zm9.1.5v-6.8c0-.5.4-.9.9-.9h4.9c.5 0 .8.4.8.8 0 .5-.4.8-.8.8H42v1.8h3.3c.5 0 .8.4.8.8 0 .5-.4.8-.8.8H42v1.9h4c.5 0 .8.4.8.8 0 .5-.4.8-.8.8h-4.9c-.7.3-1.1-.1-1.1-.8z"/><image width="1200" height="1391" xlink:href="1200px-Jupyter_logo.svg.png" transform="translate(286.112 13.997) scale(.01188)" overflow="visible"/><path id="Shape_22_" class="st2" d="M283.8 59.1h35.5c2.3 0 4.2-1.9 4.2-4.2v-2.1h3.1c.6 0 1-.4 1-1V35c0-.6-.4-1-1-1h-3.1V15.2c0-.3-.1-.5-.3-.7L311.7 3c-.2-.2-.4-.3-.7-.3h-27.2c-2.3 0-4.2 1.9-4.2 4.2v48c0 2.3 1.9 4.2 4.2 4.2zm41.8-8.4H288V36.1h37.6v14.6zM321 15.2h-7.9c-1.1 0-2.1-.9-2.1-2.1V5.2l10 10zm-39.3-8.4c0-1.1.9-2.1 2.1-2.1h25.1v8.4c0 2.3 1.9 4.2 4.2 4.2h8.4V34H287c-.6 0-1 .4-1 1v16.7c0 .6.4 1 1 1h34.5v2.1c0 1.1-.9 2.1-2.1 2.1h-35.5c-1.1 0-2.1-.9-2.1-2.1v-48h-.1z"/><path class="st1" d="M295.1 47.1c-.2-.1-.3-.4-.3-.7 0-.5.4-.9.9-.9.2 0 .4.1.6.2.4.3.7.4 1.1.4.7 0 1.3-.4 1.3-1.5v-4.8c0-.5.4-.9.9-.9s.9.4.9.9v4.8c0 1-.3 1.8-.8 2.3s-1.4.8-2.3.8c-1.1.2-1.8-.1-2.3-.6zm7.2-3.1v-4.1c0-.5.4-.9.9-.9s.9.4.9.9V44c0 1.5.7 2.2 1.9 2.2 1.1 0 1.9-.7 1.9-2.1v-4.2c0-.5.4-.9.9-.9s.9.4.9.9V44c0 2.6-1.5 4-3.9 4-2.2 0-3.5-1.4-3.5-4zm9.6-4.1c0-.5.4-.9.9-.9h2.6c2.1 0 3.3 1.3 3.3 3 0 2-1.6 3.1-3.6 3.1h-1.5v1.8c0 .5-.4.9-.9.9s-.9-.4-.9-.9l.1-7zm3.5 3.6c.9 0 1.6-.6 1.6-1.4 0-.8-.6-1.4-1.6-1.4h-1.5v2.7h1.5z"/><image width="1316" height="1126" xlink:href="vertical-logo-monochromatic.png" transform="translate(218.572 13.574) scale(.01473)" overflow="visible"/><path id="Shape_21_" class="st2" d="M216.4 59.1h35.5c2.3 0 4.2-1.9 4.2-4.2v-2.1h3.1c.6 0 1-.4 1-1V35c0-.6-.4-1-1-1h-3.1V15.2c0-.3-.1-.5-.3-.7L244.3 3c-.2-.2-.4-.3-.7-.3h-27.2c-2.3 0-4.2 1.9-4.2 4.2v48c.1 2.3 1.9 4.2 4.2 4.2zm41.8-8.4h-37.6V36.1h37.6v14.6zm-4.6-35.5h-7.9c-1.1 0-2.1-.9-2.1-2.1V5.2l10 10zm-39.3-8.4c0-1.1.9-2.1 2.1-2.1h25.1v8.4c0 2.3 1.9 4.2 4.2 4.2h8.4V34h-34.5c-.6 0-1 .4-1 1v16.7c0 .6.4 1 1 1H254v2.1c0 1.1-.9 2.1-2.1 2.1h-35.5c-1.1 0-2.1-.9-2.1-2.1v-48z"/><path class="st1" d="M225.3 39.8c0-.5.4-.9.9-.9h2.5c2.7 0 4.7 1.9 4.7 4.4 0 2.5-1.9 4.4-4.7 4.4h-2.5c-.5 0-.9-.4-.9-.9v-7zm3.4 6.1c1.6 0 2.6-1 2.6-2.6s-1-2.6-2.6-2.6h-1.5v5.2h1.5zm6-2.6c0-2.5 2-4.6 4.7-4.6s4.6 2 4.6 4.5-2 4.5-4.7 4.5-4.6-1.9-4.6-4.4zm7.3 0c0-1.6-1.1-2.8-2.6-2.8s-2.7 1.3-2.7 2.7c0 1.5 1.1 2.7 2.6 2.7s2.7-1.2 2.7-2.6zm3.4 0c0-2.5 1.9-4.6 4.6-4.6 1.4 0 2.2.3 2.9.9.2.1.4.4.4.7 0 .5-.4.9-.9.9-.3 0-.4-.1-.6-.2-.5-.4-1.1-.6-1.8-.6-1.5 0-2.5 1.3-2.5 2.7 0 1.5 1 2.7 2.5 2.7.8 0 1.4-.2 1.9-.7.1-.1.3-.2.6-.2.5 0 .9.4.9.9 0 .3-.1.5-.3.7-.8.7-1.7 1.1-3.1 1.1-2.8.2-4.6-1.8-4.6-4.3z"/><path id="Shape_20_" class="st2" d="M149.1 59.1h35.5c2.3 0 4.2-1.9 4.2-4.2v-2.1h3.1c.6 0 1-.4 1-1V35c0-.6-.4-1-1-1h-3.1V15.2c0-.3-.1-.5-.3-.7L176.9 3c-.2-.2-.4-.3-.7-.3H149c-2.3 0-4.2 1.9-4.2 4.2v48c.1 2.3 2 4.2 4.3 4.2zm41.7-8.4h-37.6V36.1h37.6v14.6zm-4.6-35.5h-7.9c-1.1 0-2.1-.9-2.1-2.1V5.2l10 10zM147 6.8c0-1.1.9-2.1 2.1-2.1h25.1v8.4c0 2.3 1.9 4.2 4.2 4.2h8.4V34h-34.5c-.6 0-1 .4-1 1v16.7c0 .6.4 1 1 1h34.5v2.1c0 1.1-.9 2.1-2.1 2.1h-35.5c-1.1 0-2.1-.9-2.1-2.1v-48h-.1z"/><path class="st1" d="M167 15.8c-.5-1-.2-2.1.8-2.7 1-.5 2.1-.2 2.7.8.5.9.2 2.1-.8 2.6-1 .6-2.2.2-2.7-.7zm2.7-1.5c-.3-.5-1-.8-1.5-.5-.5.3-.7 1-.4 1.5.3.6 1 .7 1.5.5.5-.3.7-.9.4-1.5zm-8.4 8.1c-.5-1-.2-2.1.8-2.7 1-.5 2.1-.2 2.7.8.5.9.2 2.1-.8 2.6-1 .6-2.2.3-2.7-.7zM164 21c-.3-.5-1-.8-1.5-.5-.5.3-.7 1-.4 1.5.3.6 1 .7 1.5.5.5-.3.7-1 .4-1.5zm-12.3 3.1c-.5-1-.2-2.1.8-2.7.9-.5 2.1-.2 2.6.8.5.9.2 2.1-.8 2.6-.9.6-2.1.3-2.6-.7zm2.7-1.5c-.3-.6-1-.8-1.5-.5-.5.3-.8 1-.5 1.5.3.5 1 .7 1.5.4.6-.1.8-.8.5-1.4zm5.3 7.1c-.5-1-.2-2.1.8-2.7.9-.5 2.1-.2 2.6.8.5.9.2 2.1-.8 2.6-1 .6-2.1.3-2.6-.7zm2.7-1.5c-.3-.6-1-.8-1.5-.5-.6.3-.8 1-.5 1.5.3.5 1 .7 1.5.4.6-.1.8-.8.5-1.4zm-5.1-12.1c-.5-.9-.2-2.1.8-2.6s2.1-.2 2.7.8c.5 1 .2 2.1-.8 2.7-1 .4-2.2.1-2.7-.9zm2.7-1.5c-.3-.5-1-.7-1.5-.4-.6.3-.7 1-.4 1.5.3.6 1 .8 1.5.5.5-.3.7-1 .4-1.6zm9.4 14.8c-.5-1-.2-2.1.8-2.7 1-.5 2.1-.2 2.7.8.5.9.2 2.1-.8 2.6-1 .6-2.2.2-2.7-.7zm2.7-1.5c-.3-.5-1-.8-1.5-.5-.5.3-.7 1-.4 1.5.3.6 1 .7 1.5.5.5-.3.7-.9.4-1.5z"/><path class="st3" d="M168.9 16.6l1 10.6-6.7 1.6m-3.5-.7l-5-4.3"/><path class="st4" d="M169.8 26.8"/><path class="st3" d="M154.4 21.5l3.6-5"/><path class="st4" d="M158 16.5"/><path class="st3" d="M160.6 15.4l6.2-.4m-6.9 1.7l2 3.5"/><path fill="none" stroke="#161616" stroke-width=".598" stroke-miterlimit="10" d="M164.1 22.9l5.8 4.4"/><path class="st3" d="M164.3 20.2l3.3-4.1m-12.7 6.7l6.4-1.1m.7 5.8l.6-4.4"/><path class="st1" d="M154.9 40.9c0-.4.3-.7.7-.7h.2c.3 0 .5.2.6.4l1.7 2.8 1.7-2.8c.1-.2.4-.4.6-.4h.2c.4 0 .7.3.7.7V46c0 .4-.3.7-.7.7-.4 0-.7-.3-.7-.7v-3.2l-1.2 1.9c-.1.2-.3.4-.6.4s-.4-.1-.6-.4l-1.2-1.9V46c0 .4-.3.7-.7.7-.4 0-.7-.3-.7-.7v-5.1zm7.7 2.6c0-1.9 1.5-3.4 3.4-3.4 2 0 3.4 1.5 3.4 3.3 0 1.8-1.5 3.3-3.4 3.3-1.9.1-3.4-1.4-3.4-3.2zm5.4 0c0-1.1-.8-2.1-2-2.1-1.1 0-1.9.9-1.9 2s.8 2 2 2c1.1.1 1.9-.8 1.9-1.9zm2.8-2.6c0-.4.3-.7.7-.7h1.8c2 0 3.4 1.4 3.4 3.2 0 1.8-1.4 3.2-3.4 3.2h-1.8c-.4 0-.7-.3-.7-.7v-5zm2.5 4.5c1.2 0 2-.8 2-1.9 0-1.1-.8-2-2-2h-1.1v3.9h1.1zm4.7.6v-5c0-.4.3-.7.7-.7h3.6c.4 0 .6.3.6.6 0 .4-.3.6-.6.6h-2.9v1.3h2.5c.4 0 .6.3.6.6 0 .4-.3.6-.6.6h-2.5v1.4h2.9c.4 0 .6.3.6.6 0 .4-.3.6-.6.6h-3.6c-.4.1-.7-.2-.7-.6zm6.2-5.1c0-.4.3-.7.7-.7.4 0 .7.3.7.7v4.5h2.6c.4 0 .6.3.6.6s-.3.6-.6.6h-3.3c-.4 0-.7-.3-.7-.7v-5z"/></svg>